Coordinates
version=1
nRows=30
nColumns=33
inDegrees=yes

Units are S.I. units (second, meters, Newtons, ...)
Angles are in degrees.

endheader
time	ground_thorax_rot_x	ground_thorax_rot_y	ground_thorax_rot_z	ground_thorax_tx	ground_thorax_ty	ground_thorax_tz	clav_prot_r	clav_elev_r	scapula_abduction_r	scapula_elevation_r	scapula_upward_rot_r	scapula_winging_r	shoulder_elv_r	plane_of_elev_r	axial_rot_r	elbow_flexion_r	pro_sup_r	wrist_flex_r	wrist_dev_r	clav_prot_l	clav_elev_l	scapula_abduction_l	scapula_elevation_l	scapula_upward_rot_l	scapula_winging_l	shoulder_elv_l	plane_of_elev_l	axial_rot_l	elbow_flexion_l	pro_sup_l	wrist_flex_l	wrist_dev_l	
3.4400	90.000000	90.000000	90.000000	-245.595696	851.418032	7.715474	25.797185	-45.000000	45.000000	-45.000000	3.253145	1800.541331	-1882.199440	135.180342	-180.000000	1091.940915	-139.772963	20.904498	14.087897	-45.000000	11.115390	32.110026	-14.752117	45.000000	-2417.211328	1372.884427	130.096626	180.000000	1444.465010	217.993172	8.873042	-22.592912	
3.4500	90.000000	90.000000	90.000000	-245.458127	851.196950	7.623733	25.858683	-45.000000	45.000000	-45.000000	3.200446	1800.582131	-1882.164426	135.159847	-180.000000	1091.955485	-139.834699	20.898979	14.098004	-45.000000	11.268995	32.142958	-14.821113	45.000000	-2417.166577	1372.877405	130.106801	180.000000	1444.425263	217.928552	8.879461	-22.610083	
3.4600	90.000000	90.000000	90.000000	-245.298650	850.976817	7.535475	25.937007	-45.000000	45.000000	-45.000000	3.184982	1800.646261	-1882.148692	135.163816	-180.000000	1091.949072	-139.916452	20.876243	13.983061	-45.000000	11.461388	32.162788	-14.914039	45.000000	-2417.112743	1372.847779	130.128757	180.000000	1444.374017	217.852706	8.868848	-22.644443	
3.4700	90.000000	90.000000	90.000000	-245.089806	850.756262	7.452274	25.979108	-45.000000	45.000000	-45.000000	3.169711	1800.681654	-1882.122998	135.166223	-180.000000	1091.945803	-139.993378	20.860279	13.964158	-45.000000	11.576276	32.195630	-14.970772	45.000000	-2417.077654	1372.848658	130.137875	180.000000	1444.344782	217.774961	8.881817	-22.656869	
3.4800	90.000000	90.000000	90.000000	-244.830449	850.536861	7.376411	26.003036	-45.000000	45.000000	-45.000000	3.160878	1800.699190	-1882.087728	135.163937	-180.000000	1091.919911	-140.070475	20.857654	13.996705	-45.000000	11.657046	32.227928	-15.015190	45.000000	-2417.048805	1372.858219	130.144029	180.000000	1444.318941	217.689385	8.906027	-22.660902	
3.4900	90.000000	90.000000	90.000000	-244.516097	850.319700	7.310029	26.016404	-45.000000	45.000000	-44.999999	3.183869	1800.715459	-1882.061975	135.182830	-179.999999	1091.877152	-140.151607	20.846478	14.015946	-45.000000	11.708300	32.252183	-15.056713	45.000000	-2417.026867	1372.870591	130.156430	180.000000	1444.283094	217.592214	8.936049	-22.662636	
3.5000	90.000000	89.999999	89.999999	-244.148550	850.105729	7.254732	26.018706	-44.999999	45.000000	-44.999999	3.205300	1800.702784	-1882.015506	135.182207	-179.999999	1091.806310	-140.226185	20.858289	14.092830	-44.999999	11.741212	32.267993	-15.093719	44.999999	-2417.006360	1372.886119	130.169397	179.999999	1444.242356	217.484764	8.974822	-22.660645	
3.5100	89.999999	89.999999	89.999999	-243.731718	849.895408	7.211340	26.024566	-44.999998	45.000000	-44.999998	3.257658	1800.686032	-1881.977968	135.201646	-179.999999	1091.730659	-140.299382	20.855654	14.125840	-44.999999	11.770539	32.272951	-15.131866	44.999998	-2416.985794	1372.901647	130.188006	179.999999	1444.196316	217.364994	9.015114	-22.661784	
3.5200	89.999998	89.999998	89.999998	-243.267370	849.688042	7.179617	26.024427	-44.999997	45.000000	-44.999997	3.305562	1800.640986	-1881.921255	135.207107	-179.999998	1091.645150	-140.358049	20.871616	14.215983	-44.999998	11.790300	32.276421	-15.157920	44.999997	-2416.963197	1372.923290	130.199798	179.999998	1444.161808	217.237234	9.065114	-22.657536	
3.5300	89.999997	89.999996	89.999996	-242.755168	849.482312	7.158604	26.028556	-44.999995	45.000000	-44.999995	3.396928	1800.608406	-1881.887570	135.246844	-179.999996	1091.549344	-140.413742	20.863710	14.248625	-44.999997	11.805226	32.274917	-15.181179	44.999995	-2416.940667	1372.946731	130.214234	179.999997	1444.125180	217.099288	9.117523	-22.654428	
3.5400	89.999995	89.999992	89.999992	-242.191434	849.275867	7.146692	26.025925	-44.999991	45.000000	-44.999991	3.480190	1800.548835	-1881.831554	135.271408	-179.999993	1091.446357	-140.454115	20.876558	14.338719	-44.999995	11.813621	32.274130	-15.194156	44.999991	-2416.914607	1372.975285	130.222282	179.999995	1444.101019	216.954589	9.177860	-22.646545	
3.5500	89.999991	89.999986	89.999986	-241.570198	849.065830	7.141979	26.026278	-44.999984	44.999999	-44.999983	3.598484	1800.492596	-1881.793994	135.327496	-179.999987	1091.353318	-140.488904	20.861268	14.380626	-44.999990	11.817275	32.270708	-15.202929	44.999984	-2416.887419	1373.008820	130.231933	179.999992	1444.076098	216.800446	9.241486	-22.638154	
3.5600	89.999984	89.999975	89.999974	-240.883468	848.848747	7.142500	26.019410	-44.999971	44.999999	-44.999970	3.709485	1800.411299	-1881.735540	135.373940	-179.999977	1091.263428	-140.509668	20.861905	14.473088	-44.999983	11.815989	32.267073	-15.206067	44.999972	-2416.855443	1373.045550	130.238510	179.999986	1444.054140	216.637737	9.310769	-22.626217	
3.5700	89.999971	89.999954	89.999954	-240.122755	848.620949	7.146492	26.014006	-44.999949	44.999997	-44.999946	3.856724	1800.334846	-1881.694120	135.444639	-179.999959	1091.167858	-140.528569	20.836712	14.518562	-44.999969	11.811131	32.258348	-15.212232	44.999949	-2416.820978	1373.086824	130.249900	179.999975	1444.016489	216.463859	9.381928	-22.614905	
3.5800	89.999948	89.999918	89.999918	-239.279314	848.378378	7.152490	25.999791	-44.999908	44.999995	-44.999904	3.990547	1800.227534	-1881.622012	135.492864	-179.999926	1091.067495	-140.537086	20.834057	14.620352	-44.999944	11.800818	32.248642	-15.216117	44.999909	-2416.779243	1373.137395	130.258035	179.999955	1443.978026	216.280710	9.458348	-22.600203	
3.5900	89.999906	89.999854	89.999853	-238.345731	848.117047	7.159441	25.987346	-44.999836	44.999992	-44.999828	4.156974	1800.121424	-1881.562158	135.559757	-179.999868	1090.961670	-140.545947	20.806797	14.683294	-44.999901	11.787679	32.236837	-15.219408	44.999837	-2416.728436	1373.201132	130.263679	179.999920	1443.932705	216.087250	9.538578	-22.583297	
3.6000	89.999832	89.999738	89.999737	-237.315999	847.833066	7.166673	25.969809	-44.999706	44.999985	-44.999692	4.326777	1800.007108	-1881.481984	135.616639	-179.999764	1090.827613	-140.551302	20.798870	14.783522	-44.999822	11.770344	32.222560	-15.223805	44.999708	-2416.665140	1373.273680	130.266776	179.999856	1443.878521	215.884183	9.622871	-22.563438	
3.6100	89.999699	89.999531	89.999530	-236.185446	847.522681	7.173803	25.956181	-44.999474	44.999973	-44.999449	4.534978	1799.906080	-1881.414118	135.692140	-179.999577	1090.666585	-140.560757	20.771278	14.845925	-44.999681	11.748563	32.205975	-15.231843	44.999477	-2416.591320	1373.355860	130.269767	179.999743	1443.806773	215.671694	9.709996	-22.542237	
3.6200	89.999460	89.999160	89.999157	-234.949845	847.182100	7.180628	25.939879	-44.999057	44.999952	-44.999013	4.742255	1799.795263	-1881.321179	135.755573	-179.999242	1090.483567	-140.567406	20.762302	14.945122	-44.999428	11.717873	32.191158	-15.240861	44.999063	-2416.513196	1373.445793	130.276069	179.999539	1443.719210	215.450644	9.801095	-22.518957	
3.6300	89.999033	89.998495	89.998491	-233.605204	846.807465	7.187034	25.929720	-44.998311	44.999915	-44.998231	4.979473	1799.690632	-1881.234794	135.840129	-179.998642	1090.299917	-140.575438	20.730453	15.015499	-44.998976	11.676629	32.184570	-15.247147	44.998322	-2416.438837	1373.540817	130.286489	179.999175	1443.611855	215.220458	9.895856	-22.494096	
3.6400	89.998268	89.997304	89.997297	-232.147205	846.394567	7.192944	25.920160	-44.996974	44.999847	-44.996832	5.216118	1799.578987	-1881.126094	135.917947	-179.997569	1090.096476	-140.583247	20.711636	15.111896	-44.998166	11.621327	32.193569	-15.247279	44.996995	-2416.381578	1373.633807	130.306559	179.998522	1443.479277	214.979854	9.994406	-22.468179	
3.6500	89.996898	89.995171	89.995157	-230.571317	845.938585	7.198284	25.917982	-44.994579	44.999726	-44.994325	5.476176	1799.475309	-1881.020830	136.016715	-179.995644	1089.885322	-140.595489	20.675314	15.185906	-44.996715	11.551078	32.221174	-15.239230	44.994616	-2416.347160	1373.725978	130.338681	179.997353	1443.321835	214.727850	10.097111	-22.440669	
3.6600	89.994444	89.991350	89.991326	-228.873126	845.433760	7.202946	25.917843	-44.990292	44.999510	-44.989836	5.736848	1799.366290	-1880.898402	136.112093	-179.992199	1089.653108	-140.612211	20.646493	15.276545	-44.994116	11.468218	32.265211	-15.221717	44.990358	-2416.337254	1373.821637	130.386619	179.995259	1443.143125	214.463971	10.205011	-22.409953	
3.6700	89.990046	89.984502	89.984459	-227.048919	844.873139	7.206714	25.924763	-44.982605	44.999121	-44.981788	6.016191	1799.263319	-1880.775812	136.225638	-179.986023	1089.412331	-140.637218	20.603346	15.350954	-44.989457	11.374375	32.323114	-15.186514	44.982724	-2416.358914	1373.930379	130.457915	179.991506	1442.955601	214.187557	10.320228	-22.373445	
3.6800	89.982175	89.972250	89.972172	-225.096201	844.248453	7.209188	25.934819	-44.968852	44.998427	-44.967390	6.297885	1799.153142	-1880.637619	136.338508	-179.974974	1089.160801	-140.670627	20.560658	15.434887	-44.981122	11.272975	32.390611	-15.132274	44.969065	-2416.409263	1374.056356	130.554064	179.984791	1442.767546	213.895992	10.443416	-22.328061	
3.6900	89.968053	89.950263	89.950123	-223.013922	843.550206	7.209702	25.949363	-44.944174	44.997180	-44.941552	6.594235	1799.037809	-1880.499529	136.462783	-179.955144	1088.909434	-140.715181	20.502558	15.507673	-44.966165	11.167574	32.460232	-15.059329	44.944555	-2416.477691	1374.201543	130.670029	179.972741	1442.586947	213.585404	10.573777	-22.270281	
3.7000	89.942825	89.910986	89.910737	-220.802609	842.768069	7.207302	25.964460	-44.900089	44.994954	-44.895398	6.893770	1798.900531	-1880.360833	136.586745	-179.919724	1088.662024	-140.771815	20.432597	15.580729	-44.939446	11.058760	32.522809	-14.973696	44.900771	-2416.543309	1374.358502	130.793954	179.951217	1442.412994	213.249015	10.707420	-22.196941	
3.7100	89.897439	89.840327	89.839879	-218.463833	841.891406	7.200822	25.979600	-44.820779	44.990947	-44.812364	7.194373	1798.730311	-1880.237882	136.719958	-179.855999	1088.423159	-140.846214	20.341734	15.640069	-44.891378	10.939668	32.565760	-14.871658	44.822003	-2416.600639	1374.515271	130.921239	179.912489	1442.245895	212.876177	10.839450	-22.104990	
3.7200	89.816685	89.714605	89.713804	-215.999916	840.910005	7.189036	25.992811	-44.679664	44.983821	-44.664624	7.477837	1798.497158	-1880.141108	136.862568	-179.742622	1088.199383	-140.946803	20.227865	15.685876	-44.805850	10.796803	32.567035	-14.748717	44.681851	-2416.636994	1374.651360	131.045098	179.843595	1442.083640	212.450449	10.961635	-21.989854	
3.7300	89.670508	89.487028	89.485589	-213.413242	839.814709	7.170861	25.997742	-44.424232	44.970913	-44.397194	7.720110	1798.148528	-1880.097324	137.022861	-179.537371	1087.997402	-141.094254	20.083310	15.706033	-44.651038	10.596321	32.478147	-14.571668	44.428162	-2416.654207	1374.748784	131.170530	179.718852	1441.941186	211.945957	11.064550	-21.842786	
